<?xml version="1.0" encoding="UTF-8" standalone="no"?>
<!-- Created with Inkscape (http://www.inkscape.org/) -->

<svg
   xmlns:dc="http://purl.org/dc/elements/1.1/"
   xmlns:cc="http://creativecommons.org/ns#"
   xmlns:rdf="http://www.w3.org/1999/02/22-rdf-syntax-ns#"
   xmlns:svg="http://www.w3.org/2000/svg"
   xmlns="http://www.w3.org/2000/svg"
   xmlns:xlink="http://www.w3.org/1999/xlink"
   xmlns:sodipodi="http://sodipodi.sourceforge.net/DTD/sodipodi-0.dtd"
   xmlns:inkscape="http://www.inkscape.org/namespaces/inkscape"
   width="64"
   height="64"
   id="svg4152"
   version="1.1"
   inkscape:version="0.91 r13725"
   viewBox="0 0 64 64"
   sodipodi:docname="tree.svg"
   inkscape:export-filename="/Users/chillerdragon/Desktop/git/StickGame/tree.png"
   inkscape:export-xdpi="1440"
   inkscape:export-ydpi="1440">
  <defs
     id="defs4154" />
  <sodipodi:namedview
     id="base"
     pagecolor="#ffffff"
     bordercolor="#666666"
     borderopacity="1.0"
     inkscape:pageopacity="0.0"
     inkscape:pageshadow="2"
     inkscape:zoom="8.25"
     inkscape:cx="19.178251"
     inkscape:cy="31.340133"
     inkscape:current-layer="layer1"
     showgrid="true"
     inkscape:document-units="px"
     inkscape:grid-bbox="true"
     inkscape:window-width="1440"
     inkscape:window-height="790"
     inkscape:window-x="72"
     inkscape:window-y="103"
     inkscape:window-maximized="0" />
  <metadata
     id="metadata4157">
    <rdf:RDF>
      <cc:Work
         rdf:about="">
        <dc:format>image/svg+xml</dc:format>
        <dc:type
           rdf:resource="http://purl.org/dc/dcmitype/StillImage" />
        <dc:title />
      </cc:Work>
    </rdf:RDF>
  </metadata>
  <g
     id="layer1"
     inkscape:label="Layer 1"
     inkscape:groupmode="layer">
    <g
       id="g4204"
       transform="matrix(0.66368869,0,0,0.66368869,10.359291,19.677242)">
      <path
         inkscape:connector-curvature="0"
         id="path4704"
         d="m 15.393939,63.39394 c 1.010101,0 2.020202,0 3.030303,0 0.211093,0 0.565957,0.04033 0.727273,0 0.0392,-0.0098 -0.03833,-0.108436 0,-0.121213 0.859724,0 0.071,0.08571 0.484849,-0.121212 0.03614,-0.01807 0.09264,0.02857 0.121212,0 0.02857,-0.02857 -0.03833,-0.108435 0,-0.121212 0.114992,-0.03833 0.255221,0.05421 0.363636,0 0.05111,-0.02555 -0.146766,-0.0701 -0.121212,-0.121212 0.0404,-0.08081 0.17854,-0.05733 0.242424,-0.121212 0.02857,-0.02857 -0.02857,-0.09264 0,-0.121212 0.06388,-0.06388 0.17854,-0.05733 0.242424,-0.121212 0.02857,-0.02857 -0.02857,-0.09264 0,-0.121212 0.103011,-0.103011 0.260626,-0.139414 0.363637,-0.242425 0.02857,-0.02857 -0.01278,-0.08288 0,-0.121212 0.02857,-0.08571 0.0711,-0.167251 0.121212,-0.242424 0.06339,-0.09509 0.206286,-0.134009 0.242424,-0.242424 0.06515,-0.195449 0.01522,-0.429399 0.121212,-0.606061 0.04158,-0.06929 0.185285,0.05714 0.242425,0 0.05714,-0.05714 0,-0.161616 0,-0.242424 0,-0.121212 0,-0.242424 0,-0.363636 0,-0.08081 -0.03614,-0.170148 0,-0.242425 0.05111,-0.102215 0.214707,-0.131556 0.242424,-0.242424 0.03333,-0.133337 -0.291766,-0.314295 -0.121212,-0.484848 0.05714,-0.05714 0.21687,0.07666 0.242424,0 0.0404,-0.121213 -0.121212,-0.235868 -0.121212,-0.363637 0,-0.09035 0.0711,-0.167251 0.121212,-0.242424 0.03169,-0.04754 0.121212,-0.06407 0.121212,-0.121212 0,-0.05714 -0.08081,-0.08081 -0.121212,-0.121212 0,-0.121212 -0.03833,-0.248645 0,-0.363637 0.04607,-0.138203 0.213854,-0.220786 0.242424,-0.363636 0.02802,-0.140111 -0.196032,-0.213995 -0.121212,-0.363636 0.06515,-0.130299 0.196357,-0.225434 0.242424,-0.363637 0.07666,-0.229984 -0.09003,-0.502187 0,-0.727272 0.04244,-0.106107 0.191317,-0.14021 0.242425,-0.242425 0.01807,-0.03614 -0.09264,0.02857 -0.121213,0 -0.02857,-0.02857 -0.03614,-0.103143 0,-0.121212 0.07228,-0.03614 0.206286,0.07228 0.242425,0 0.0404,-0.08081 -0.05733,-0.17854 -0.121212,-0.242424 -0.02857,-0.02857 0.0404,0.121212 0,0.121212 -0.0404,0 0,-0.08081 0,-0.121212 0,-0.0404 -0.02857,-0.09264 0,-0.121212 0.06388,-0.06388 0.178539,-0.05733 0.242424,-0.121212 0.05714,-0.05714 -0.05714,-0.185285 0,-0.242425 0.06388,-0.06388 0.20202,-0.0404 0.242424,-0.121212 0.02555,-0.05111 -0.121212,-0.06407 -0.121212,-0.121212 0,-0.08081 0.242424,0.08081 0.242424,0 0,-0.05714 -0.06407,-0.121212 -0.121212,-0.121212 -0.0404,0 -0.02857,0.09264 0,0.121212 0.02857,0.02857 0.09264,0.02857 0.121212,0 0.02857,-0.02857 -0.01807,-0.08507 0,-0.121212 0.02555,-0.05111 0.121212,-0.06407 0.121212,-0.121212 0,-0.0404 -0.09264,0.02857 -0.121212,0 -0.02857,-0.02857 -0.02857,-0.09264 0,-0.121212 0.06388,-0.06388 0.20202,-0.0404 0.242424,-0.121212 0.02555,-0.05111 -0.146765,-0.0701 -0.121212,-0.121212 0.0404,-0.08081 0.17854,-0.05733 0.242425,-0.121212 0.372048,-0.372049 -0.07082,-0.100785 0.121212,-0.484849 0.102215,-0.20443 0.399963,-0.272636 0.484848,-0.484848 0.04502,-0.112543 -0.02377,-0.244779 0,-0.363637 0.01772,-0.08859 0.08081,-0.161616 0.121212,-0.242424 0.186578,-0.373156 0.450007,-0.700774 0.606061,-1.090909 0.04745,-0.11863 0.07376,-0.245006 0.121212,-0.363637 0.113049,-0.282623 0.184994,-0.26148 0.242424,-0.60606 0.01993,-0.119563 -0.04502,-0.251094 0,-0.363636 0.04244,-0.106107 0.183628,-0.144431 0.242424,-0.242425 0.159543,-0.265904 0.121213,-0.437675 0.121213,-0.727272 0,-0.08081 -0.03001,-0.167396 0,-0.242425 0.0541,-0.135259 0.196356,-0.225433 0.242424,-0.363636 0.03652,-0.109568 -0.04198,-0.764524 0,-0.848485 0.05111,-0.102215 0.214707,-0.131556 0.242424,-0.242424 0.02191,-0.08765 -0.0993,-0.154776 -0.121212,-0.242424 -0.0196,-0.0784 0,-0.161617 0,-0.242425 0,-0.0404 -0.01278,-0.08288 0,-0.121212 0.02857,-0.08571 0.09264,-0.156714 0.121212,-0.242424 0.01278,-0.03833 0,-0.08081 0,-0.121212 0,-0.121212 0,-0.242424 0,-0.363636 0,-0.242425 0,-0.484849 0,-0.727273 0,-0.686869 0,-1.373738 0,-2.060606 0,-1.212121 0,-2.424243 0,-3.636364 0,-0.565656 0,-1.131313 0,-1.69697 0,-0.242424 0.03428,-0.487285 0,-0.727272 -0.01807,-0.126485 -0.100207,-0.237606 -0.121212,-0.363637 -0.01993,-0.119563 0,-0.242424 0,-0.363636 0,-0.363636 0,-0.727273 0,-1.090909 0,-1.010101 0,-2.020202 0,-3.030303 0,-0.323233 0,-0.646465 0,-0.969697 0,-0.121212 0.02377,-0.244778 0,-0.363637 -0.01772,-0.08859 -0.09264,-0.156714 -0.121212,-0.242424 -0.01278,-0.03833 0.0098,-0.08201 0,-0.121212 -0.03099,-0.123954 -0.121212,-0.235867 -0.121212,-0.363636 0,-0.09035 0.121212,-0.152078 0.121212,-0.242424 0,-0.0404 -0.108435,0.03833 -0.121212,0 -0.02589,-0.07767 0,-0.804532 0,-0.969697 0,-0.08081 0.02555,-0.165763 0,-0.242425 -0.02857,-0.08571 -0.121212,-0.152078 -0.121212,-0.242424 0,-0.0404 0.108435,0.03833 0.121212,0 0.02433,-0.073 0,-0.8655 0,-0.969697 0,-0.686869 0,-1.373737 0,-2.060606 0,-0.646465 0,-1.292929 0,-1.939394 0,-0.161616 0,-0.323232 0,-0.484848 0,-0.08081 0.02555,-0.165763 0,-0.242425 -0.09227,-0.276821 -0.242425,0.07493 -0.242425,-0.363636 0,-0.05714 0.121213,-0.06407 0.121213,-0.121212 0,-0.05714 -0.09566,-0.07011 -0.121213,-0.121212 -0.01807,-0.03614 0.01807,-0.08507 0,-0.121212 -0.02555,-0.05111 -0.121212,-0.06407 -0.121212,-0.121212 0,-0.0404 0.121212,0.0404 0.121212,0 0,-0.212225 -0.418954,-0.08827 -0.484848,-0.121213 -0.102215,-0.05111 -0.151,-0.173856 -0.242424,-0.242424 C 24.582719,21.830979 24.386978,21.805385 24.242424,21.69697 24.151,21.628402 24.087792,21.527706 24,21.454546 23.844804,21.325215 23.668537,21.222382 23.515152,21.090909 23.385,20.979351 23.286826,20.832515 23.151515,20.727273 22.208981,20.098917 22.651755,20.424434 21.818182,19.757576 21.616162,19.59596 21.421351,19.424895 21.212121,19.272727 20.97649,19.101359 20.712361,18.969889 20.484848,18.787879 20.306373,18.645099 20.170828,18.454877 20,18.303031 c -0.193364,-0.171879 -0.423124,-0.301912 -0.606061,-0.484849 -0.06388,-0.06388 -0.05066,-0.185985 -0.121212,-0.242424 -0.141097,-0.112878 -0.327963,-0.152776 -0.484848,-0.242424 -0.126485,-0.07228 -0.249881,-0.15142 -0.363637,-0.242425 -0.249292,-0.199433 -0.476053,-0.538858 -0.727272,-0.727272 -0.07228,-0.05421 -0.167252,-0.0711 -0.242425,-0.121213 -0.363636,-0.242424 0.242425,0 -0.363636,-0.363636 -0.109561,-0.06574 -0.249356,-0.06407 -0.363636,-0.121212 -0.05111,-0.02555 -0.07732,-0.08463 -0.121212,-0.121212 C 16.407312,15.47074 16.221844,15.284622 16,15.151515 15.813425,15.03957 15.580515,15.021036 15.393939,14.909091 c -0.221843,-0.133106 -0.401845,-0.326015 -0.60606,-0.484848 -0.159465,-0.124029 -0.329652,-0.234307 -0.484849,-0.363637 -0.08779,-0.07316 -0.153186,-0.171034 -0.242424,-0.242424 -0.291741,-0.233393 -0.672004,-0.393423 -0.969697,-0.606061 -0.09299,-0.06642 -0.153187,-0.171034 -0.242424,-0.242424 -0.231567,-0.185253 -0.438822,-0.23399 -0.606061,-0.484848 -0.02241,-0.03362 0.02857,-0.09264 0,-0.121212 -0.473059,-0.473059 -0.0651,0.02806 -0.363636,-0.121213 -0.05111,-0.02555 -0.07367,-0.08952 -0.121212,-0.121212 -0.07517,-0.05011 -0.192309,-0.04604 -0.242424,-0.121212 -0.242425,-0.363636 0.121212,-0.121212 0,-0.363636 -0.02555,-0.05111 -0.121213,-0.06407 -0.121213,-0.121212 0,-0.05714 0.08081,-0.08081 0.121213,-0.121212 -0.08081,-0.161617 -0.134009,-0.340295 -0.242425,-0.484849 -0.02424,-0.03232 -0.103143,0.03614 -0.121212,0 -0.367955,-0.73591 0.173385,-0.253668 -0.363636,-0.9696972 -0.02424,-0.03232 -0.09264,0.02857 -0.121212,0 -0.09486,-0.09486 -0.299871,-0.446645 -0.363637,-0.60606 -0.04745,-0.118631 -0.06407,-0.249357 -0.121212,-0.363637 -0.02555,-0.05111 -0.103143,-0.067 -0.121212,-0.121212 -0.02555,-0.076661 0.02555,-0.1657629 0,-0.2424242 -0.03614,-0.1084154 -0.1913167,-0.1402092 -0.2424242,-0.2424242 -0.036138,-0.072277 0.036138,-0.1701473 0,-0.2424243 C 9.7926278,8.0701051 9.6969697,8.0571401 9.6969697,8 c 0,-0.040404 0.1212121,-0.040404 0.1212121,0 0,0.040404 -0.092642,0.02857 -0.1212121,0 -0.02857,-0.02857 0,-0.080808 0,-0.1212121 0,-0.080808 0,-0.1616162 0,-0.2424243 0,-0.040404 0,0.1616162 0,0.1212122 0,-0.6868687 0,-1.3737374 0,-2.0606061 0,-0.040404 0,0.1616162 0,0.1212121 0,-0.080808 0,-0.1616161 0,-0.2424242 0,-0.040404 -0.040404,0.1212121 0,0.1212121 0.201005,0 0.084992,-0.1699841 0.1212121,-0.2424242 0.025554,-0.051108 0.089517,-0.073669 0.1212121,-0.1212122 0.015052,-0.022578 0.2346571,-0.4770812 0.2424241,-0.4848484 0.02857,-0.02857 0.08507,0.018069 0.121212,0 0.193289,-0.096644 0.04914,-0.14578 0.242425,-0.2424243 0.03614,-0.018069 0.103142,0.036139 0.121212,0 0.03614,-0.072277 0,-0.1616161 0,-0.2424242 0,-0.040404 -0.0404,0.1212121 0,0.1212121 0.05714,0 0.08081,-0.1616162 0.121212,-0.1212121 0.05714,0.05714 -0.07228,0.2062857 0,0.2424242 0.08081,0.040404 0.17854,-0.1850965 0.242424,-0.1212121 0.08571,0.08571 -0.0294,0.2460433 0,0.3636364 0.01386,0.055434 0.09566,0.070105 0.121212,0.1212121 0.05714,0.1142799 0.04455,0.2614213 0.121212,0.3636363 0.05421,0.072277 0.17854,0.057328 0.242425,0.1212122 0.02857,0.02857 -0.02857,0.092642 0,0.1212121 0.06388,0.063884 0.20202,0.040404 0.242424,0.1212121 0.05421,0.1084154 -0.03833,0.2486445 0,0.3636364 0.01278,0.038331 0.09264,-0.02857 0.121212,0 0.127769,0.1277688 0.114655,0.3570797 0.242424,0.4848485 0.02857,0.02857 -0.02857,-0.1497821 0,-0.1212122 0.06389,0.063884 0.09264,0.1567144 0.121212,0.2424243 0.01278,0.038331 -0.0404,0.1212121 0,0.1212121 0.05714,0 0.06407,-0.1212121 0.121212,-0.1212121 0.0089,0 -0.01112,0.3413956 0,0.3636363 0.02555,0.051108 0.09566,0.070105 0.121212,0.1212122 0.05714,0.1142798 0.09022,0.2396824 0.121213,0.3636363 0.0098,0.039198 -0.01807,0.085074 0,0.1212121 0.02555,0.051108 0.107353,0.065778 0.121212,0.1212122 0,0.1212121 0,0.2424242 0,0.3636363 0.0404,0.040404 0.103143,0.067004 0.121212,0.1212122 0.02555,0.076661 -0.05714,0.1852843 0,0.2424242 0.0404,0.040404 0.09566,-0.1723196 0.121212,-0.1212121 0.05421,0.1084154 -0.03833,0.2486444 0,0.3636363 0.01278,0.038331 0.09264,-0.02857 0.121212,0 0.02857,0.02857 -0.01807,0.085074 0,0.1212121 0.252228,0.504456 0.04877,-0.07244 0.121212,0 0.06389,0.06388 0.05733,0.17854 0.121212,0.242424 0.02857,0.02857 -0.0404,-0.121212 0,-0.121212 0.0404,0 -0.01807,0.08507 0,0.121212 0.02555,0.05111 0.06407,0.121212 0.121212,0.121212 0.05714,0 0.08081,-0.161616 0.121213,-0.121212 0.05714,0.05714 -0.03614,0.170148 0,0.242425 0.01807,0.03614 0.08507,-0.01807 0.121212,0 0.05111,0.02555 0.06407,0.121212 0.121212,0.121212 0.05714,0 0.0701,-0.146766 0.121212,-0.121212 0.08081,0.0404 0.09264,0.156714 0.121212,0.242424 0.01278,0.03833 -0.0404,0.121212 0,0.121212 0.05714,0 0.0701,-0.146766 0.121212,-0.121212 0.08081,0.0404 0.05733,0.17854 0.121212,0.242424 0.06389,0.06388 0.167252,0.0711 0.242425,0.121212 0.04754,0.0317 0.06407,0.1212122 0.121212,0.1212122 0.09035,0 0.161616,-0.08081 0.242424,-0.1212122 0.08081,0.1212122 0.112125,0.2984872 0.242424,0.3636372 0.08081,0.0404 0.156714,-0.149783 0.242424,-0.121213 0.484849,0.161617 -0.282828,0.363637 0.363637,0.363637 0.09035,0 0.154775,-0.143125 0.242424,-0.121212 0.686869,0.686868 -0.0404,0.121212 0.363636,0.121212 0.05714,0 0.07367,0.08952 0.121212,0.121212 0.07517,0.05011 0.152079,0.121212 0.242425,0.121212 0.05714,0 0.06407,-0.121212 0.121212,-0.121212 0.05714,0 0.0701,0.09566 0.121212,0.121212 0.03614,0.01807 0.08081,0 0.121212,0 0.08081,0 0.161616,0 0.242424,0 0.282829,0 0.565657,0 0.848485,0 0.0404,0 0.08081,0 0.121212,0 0.0404,0 0.103143,0.03614 0.121212,0 0.03614,-0.07228 -0.0196,-0.164029 0,-0.242424 0.02191,-0.08765 0.08766,-0.15854 0.121213,-0.242424 0.293035,-0.7325892 0.0287,-0.05101 0.121212,-0.6060612 0.02739,-0.164324 0.100549,-0.319545 0.121212,-0.484849 0.02005,-0.160368 0,-0.323232 0,-0.4848481 0,-0.3232323 0,-0.6464646 0,-0.9696969 0,-0.4889617 0.06543,-0.9879398 -0.121212,-1.4545455 -0.02122,-0.053053 -0.09566,-0.070105 -0.121212,-0.1212121 -0.01807,-0.036138 0.01807,-0.085074 0,-0.1212121 -0.02555,-0.051107 -0.09566,-0.070105 -0.121213,-0.1212121 -0.01807,-0.036139 0.01807,-0.085074 0,-0.1212122 -0.02555,-0.051107 -0.0701,-0.095658 -0.121212,-0.1212121 -0.03614,-0.018069 -0.103143,0.036138 -0.121212,0 -0.03614,-0.072277 0,-0.1616162 0,-0.2424242 0,-0.040404 0.02857,-0.092642 0,-0.1212122 -0.10301,-0.1030104 -0.260626,-0.1394137 -0.363636,-0.2424242 -0.02857,-0.02857 0.01807,-0.085074 0,-0.1212121 C 17.792632,4.918589 17.722522,4.899592 17.69697,4.8484849 17.63983,4.734205 17.64663,4.5911586 17.575758,4.4848485 c -0.02241,-0.033618 -0.08081,0 -0.121213,0 -0.0404,-0.040404 -0.09566,-0.070105 -0.121212,-0.1212121 -0.01807,-0.036138 0.01807,-0.085074 0,-0.1212121 -0.02555,-0.051108 -0.08081,-0.080808 -0.121212,-0.1212122 -0.09468,-0.094677 -0.293907,-0.2590424 -0.363636,-0.3636363 -0.05012,-0.075173 -0.09264,-0.1567144 -0.121212,-0.2424243 -0.01278,-0.038331 0.0404,-0.1212121 0,-0.1212121 -0.05714,0 -0.08081,0.1616162 -0.121212,0.1212121 -0.05714,-0.05714 0,-0.1616161 0,-0.2424242 0,-0.040404 0.0404,0.1212121 0,0.1212121 -0.0404,0 -0.03614,-0.1031429 0,-0.1212121 0.108415,-0.054208 0.242424,0 0.363636,0 0.27737,0 0.312529,-0.025554 0.606061,0.1212121 0.360688,0.180344 0.423474,0.3785959 0.848484,0.4848485 0.156791,0.039198 0.323233,0 0.484849,0 0.08081,0 0.185284,-0.05714 0.242424,0 0.09035,0.090346 0.01165,0.2978999 0.121212,0.3636364 0.138585,0.083151 0.325432,-0.02657 0.484849,0 0.08912,0.014853 0.156714,0.092642 0.242424,0.1212121 0.03833,0.012777 0.09264,-0.02857 0.121212,0 0.06388,0.063884 0.0404,0.2020202 0.121212,0.2424242 0.05111,0.025554 0.121212,-0.178352 0.121212,-0.1212121 0,0.090346 -0.121212,0.1520781 -0.121212,0.2424242 0,0.05714 0.08081,-0.1616161 0.121212,-0.1212121 0.121212,0.1212121 -0.06061,0.2424243 0,0.3636364 0.02555,0.051107 0.103143,0.067004 0.121212,0.1212121 0.05111,0.1533226 -0.03169,0.3263708 0,0.4848485 0.02506,0.1252876 0.121213,0.2358676 0.121213,0.3636364 0,0.1277687 -0.121213,0.2358675 -0.121213,0.3636363 0,0.4571196 0.169985,0.24386 0.242425,0.6060606 0.02377,0.1188583 0,0.2424243 0,0.3636364 0,0.040404 -0.0098,0.082014 0,0.1212121 C 20.874039,7.9810029 20.848485,7.5369841 20.848485,8 c 0,0.1212121 0,0.2424243 0,0.3636364 0,0.040404 -0.0404,-0.1212121 0,-0.1212121 0.08081,0 -0.08081,0.2424242 0,0.2424242 0.342015,0 -0.165363,-0.6173 0.121212,0.2424242 0.07244,0.2173201 0.242424,-0.3359074 0.242424,0.1212121 0,0.09035 -0.143124,0.154776 -0.121212,0.242424 -0.166518,0.613834 0.282828,0.121212 0.363636,0.242425 0.07087,0.10631 0.06407,0.249356 0.121213,0.363636 0.05111,0.102215 0.214707,0.131556 0.242424,0.242424 0.07288,0.2915102 -0.108527,0.3763212 0.121212,0.6060612 0.02857,0.02857 0.09264,-0.02857 0.121212,0 0.103011,0.10301 0.167473,0.238718 0.242424,0.363636 0.04648,0.07747 0.04604,0.192309 0.121212,0.242424 0.06724,0.04483 0.185285,-0.05714 0.242425,0 0.190186,0.190186 0.05224,0.415875 0.242424,0.606061 0.10301,0.10301 0.260626,0.139414 0.363636,0.242424 0.06388,0.06389 0.04894,0.188217 0.121212,0.242424 0.102215,0.07666 0.273291,0.03087 0.363637,0.121213 0.0404,0.0404 -0.17232,0.09566 -0.121212,0.121212 0.108415,0.05421 0.244778,-0.02377 0.363636,0 0.08859,0.01772 0.154776,0.0993 0.242424,0.121212 0.0784,0.0196 0.161616,0 0.242424,0 0.0404,0 0.08759,-0.02241 0.121213,0 0.09509,0.06339 0.130363,0.220012 0.242424,0.242424 0.125287,0.02506 0.235867,-0.121212 0.363636,-0.121212 0.09035,0 0.156715,0.09264 0.242424,0.121212 0.03833,0.01278 0.08081,0 0.121213,0 0.161616,0 0.323232,0 0.484848,0 0.0404,0 0.121212,-0.0404 0.121212,0 0,0.0404 -0.149782,0.02857 -0.121212,0 0.161616,-0.161616 0.363636,-0.0404 0.363636,-0.363636 0,-0.09035 -0.13893,-0.153833 -0.121212,-0.242425 0.02857,-0.142849 0.155017,-0.247093 0.242425,-0.363636 0.03428,-0.04571 0.110006,-0.06518 0.121212,-0.121212 0.03169,-0.158478 -0.02657,-0.325431 0,-0.484849 0.01485,-0.08912 0.121212,-0.152078 0.121212,-0.242424 0,-0.206021 -0.146766,-0.40163 -0.121212,-0.60606 0.01807,-0.144554 0.213854,-0.220787 0.242424,-0.363637 0.01772,-0.08859 -0.0993,-0.1547752 -0.121212,-0.2424242 -0.0196,-0.0784 0,-0.161616 0,-0.242424 0,-0.242424 0,-0.484849 0,-0.727273 0,-0.1212121 0,-0.2424242 0,-0.3636363 0,-0.080808 0.0196,-0.1640289 0,-0.2424242 C 26.765969,8.1547753 26.684385,8.0885917 26.666667,8 c -0.02377,-0.1188583 0.03833,-0.2486444 0,-0.3636364 -0.04607,-0.138203 -0.196357,-0.2254332 -0.242425,-0.3636363 -0.01278,-0.038331 0.131012,0.039198 0.121213,0 -0.04383,-0.1752974 -0.1986,-0.3095512 -0.242425,-0.4848485 -0.0392,-0.1567907 0,-0.3232323 0,-0.4848485 0,-0.040404 0.02241,-0.087594 0,-0.1212121 -0.06339,-0.095087 -0.220012,-0.1303636 -0.242424,-0.2424242 -0.02506,-0.1252877 0.09615,-0.2383488 0.121212,-0.3636364 0.01585,-0.079239 0,-0.1616162 0,-0.2424243 0,-0.2424242 0,-0.4848484 0,-0.7272727 0,-0.080808 0,-0.1616161 0,-0.2424242 0,-0.040404 0,0.1616161 0,0.1212121 0,-0.7946128 0,0.4309764 0,-0.3636364 0,-0.040404 0,0.1616162 0,0.1212122 0,-0.080808 -0.05714,-0.1852843 0,-0.2424243 0.0057,-0.00571 0.594904,0.00744 0.606061,0 0.06724,-0.044824 -0.05714,-0.1852843 0,-0.2424242 0.09035,-0.090346 0.242424,-0.080808 0.363636,-0.1212122 0.121212,-0.040404 0.245006,-0.07376 0.363637,-0.1212121 0.08388,-0.033554 0.156714,-0.092642 0.242424,-0.1212121 0.363636,-0.1212121 -0.242424,0.2424242 0.363636,0 0.121212,-0.080808 0.242424,-0.1616162 0.363636,-0.2424242 0.0404,0.040404 0.06407,0.1212121 0.121213,0.1212121 0.09035,0 0.178539,-0.057328 0.242424,-0.1212121 0.02857,-0.02857 -0.0404,-0.1212122 0,-0.1212122 0.09035,0 0.156714,0.092642 0.242424,0.1212122 0.03833,0.012777 0.08081,0 0.121212,0 0.242424,0 0.484849,0 0.727273,0 0.0404,0 0.121212,-0.040404 0.121212,0 0,0.040404 -0.149782,-0.02857 -0.121212,0 0.06388,0.063884 0.167252,0.071097 0.242424,0.1212121 0.04754,0.031695 0.09566,0.070105 0.121212,0.1212121 0.01807,0.036138 -0.0404,0.1212121 0,0.1212121 0.05714,0 0.121212,-0.064072 0.121212,-0.1212121 0,-0.040404 -0.103142,-0.036138 -0.121212,0 -0.03614,0.072277 0,0.1616162 0,0.2424242 0,0.040404 0,-0.1616161 0,-0.1212121 0,0.080808 0,0.1616162 0,0.2424243 0,0.040404 0,-0.1616162 0,-0.1212122 0,0.80402 -0.05714,-0.1714198 0.121212,0.3636364 0.02555,0.076661 0,0.1616162 0,0.2424243 0,0.040404 0,-0.1616162 0,-0.1212122 0,0.2020202 0,0.4040404 0,0.6060606 0,0.040404 -0.0404,-0.1212121 0,-0.1212121 0.0404,0 0,0.080808 0,0.1212121 0,0.079649 0.0228,0.2952487 0,0.3636364 -0.08075,0.242237 -0.28289,0.3638236 -0.363636,0.6060606 -0.03833,0.1149919 0.0294,0.2460433 0,0.3636364 -0.01386,0.055434 -0.103143,0.067004 -0.121212,0.1212121 -0.02555,0.076661 0.0196,0.1640289 0,0.2424242 -0.02191,0.087649 -0.08081,0.1616162 -0.121212,0.2424243 -0.0404,0.1616161 -0.09382,0.320525 -0.121212,0.4848485 -0.01328,0.079709 0.02555,0.1657629 0,0.2424242 -0.05714,0.1714198 -0.161616,0.3232323 -0.242425,0.4848485 -0.0404,0.080808 -0.121212,0.1520781 -0.121212,0.2424242 0,0.1277688 0.121212,0.2358676 0.121212,0.3636364 0,0.05714 -0.107353,0.065778 -0.121212,0.1212121 -0.0294,0.117593 0.04502,0.2510942 0,0.3636362 -0.04244,0.106106 -0.220012,0.130364 -0.242424,0.242424 -0.02506,0.125288 0.14627,0.238349 0.121212,0.363637 -0.02241,0.11206 -0.206286,0.134009 -0.242424,0.242424 -0.01807,0.05421 0.103143,0.067 0.121212,0.121212 0.02555,0.07666 0.02555,0.1657632 0,0.2424242 -0.01807,0.05421 -0.103143,0.067 -0.121212,0.121213 -0.02555,0.07666 0,0.161616 0,0.242424 0,0.08081 0,0.161616 0,0.242424 0,0.20202 0,0.40404 0,0.606061 0,0.08081 -0.0196,0.164028 0,0.242424 0.02191,0.08765 0.0993,0.154775 0.121212,0.242424 0.0196,0.0784 -0.02555,0.165763 0,0.242424 0.19268,0.578041 0.242424,-0.92266 0.242424,0.606061 0,0.0404 -0.133989,-0.03833 -0.121212,0 0.04607,0.138203 0.213854,0.220786 0.242424,0.363636 0.01772,0.08859 -0.161616,0.161616 -0.121212,0.242425 0.03614,0.07228 0.216871,-0.07666 0.242425,0 0.0404,0.121212 -0.161617,0.242424 -0.121213,0.363636 0.02555,0.07666 0.185285,-0.05714 0.242425,0 0.0404,0.0404 -0.146766,0.0701 -0.121212,0.121212 8.68e-4,0.0017 0.363636,0.149052 0.363636,0.242424 0,0.05714 -0.161616,0.08081 -0.121212,0.121212 0.05714,0.05714 0.185284,-0.05714 0.242424,0 0.05714,0.05714 -0.02555,0.165763 0,0.242425 0.01807,0.05421 0.08081,0.08081 0.121212,0.121212 0.0404,0.0404 0.07011,0.09566 0.121212,0.121212 0.03614,0.01807 0.08202,-0.0098 0.121212,0 0.123954,0.03099 0.239683,0.09022 0.363637,0.121212 0.0392,0.0098 0.08159,-0.0079 0.121212,0 0.163355,0.03267 0.320525,0.09382 0.484848,0.121212 0.07971,0.01328 0.170148,-0.03614 0.242425,0 0.102215,0.05111 0.161616,0.161616 0.242424,0.242424 0.121212,-0.0404 0.237606,-0.142217 0.363636,-0.121212 0.143697,0.02395 0.219083,0.224355 0.363637,0.242424 0.20443,0.02555 0.40211,-0.150347 0.60606,-0.121212 0.113132,0.01616 0.131557,0.214708 0.242424,0.242425 0.08765,0.02191 0.154776,-0.0993 0.242425,-0.121213 0.0784,-0.0196 0.161616,0 0.242424,0 0.282828,0 0.565657,0 0.848485,0 0.08081,0 0.170147,0.03614 0.242424,0 0.315673,-0.157836 0.225402,-0.329591 0.363636,-0.60606 0.02555,-0.05111 0.103143,-0.067 0.121213,-0.121212 0.06515,-0.195449 0.07652,-0.404946 0.121212,-0.606061 0.03614,-0.162623 0.08854,-0.321493 0.121212,-0.484848 0.0482,-0.240996 0.07725,-0.485469 0.121212,-0.727273 0.03685,-0.202698 0.09566,-0.401631 0.121212,-0.606061 0.01503,-0.120276 -0.0333,-0.247088 0,-0.363636 0.04964,-0.17374 0.220012,-0.305551 0.242424,-0.484849 -0.08436,-0.33745 -0.169414,-0.511068 -0.121212,-0.848484 0.02356,-0.164916 0.08854,-0.321494 0.121212,-0.4848492 0.0079,-0.03962 0,-0.08081 0,-0.121212 0,-0.20202 0,-0.40404 0,-0.606061 0,-0.444444 0,-0.8888885 0,-1.3333329 0,-0.4040404 0,-0.8080808 0,-1.2121212 0,-0.1212121 0.02377,-0.2447781 0,-0.3636364 -0.01772,-0.088592 -0.0993,-0.1547756 -0.121212,-0.2424242 -0.0196,-0.078395 0,-0.1616162 0,-0.2424243 0,-0.080808 0,-0.1616161 0,-0.2424242 0,-0.040404 -0.02857,-0.092642 0,-0.1212121 0.226172,-0.2261722 0.355092,-0.056334 0.484849,-0.1212122 0.05111,-0.025554 0.06578,-0.1073536 0.121212,-0.1212121 0.117593,-0.029398 0.242424,0 0.363636,0 0.121212,0 0.242424,0 0.363636,0 0.484849,0 0.969697,0 1.454546,0 0.606061,0 1.212121,0 1.818182,0 0.161616,0 0.323232,0 0.484848,0 0.08081,0 0.161616,0 0.242424,0 0.0404,0 0.08288,-0.012777 0.121213,0 0.220148,0.073383 0.224951,0.1037392 0.363636,0.2424243 0.08081,0.080808 0.173856,0.1510003 0.242424,0.2424242 0.197182,0.2629089 0.296063,0.7868282 0.363637,1.0909091 0.04469,0.201115 0.07652,0.4049456 0.121212,0.6060606 0.03614,0.1626231 0.121212,0.3182584 0.121212,0.4848485 0,0.2457682 -0.100802,0.4823535 -0.121212,0.7272727 -0.02013,0.2415872 0,0.4848482 0,0.7272732 0,0.444444 0.03167,0.8900182 0,1.3333332 -0.0091,0.127444 -0.08516,0.241059 -0.121212,0.363636 -0.165997,0.564387 -0.260857,1.152989 -0.484849,1.69697 -0.06527,0.158508 -0.286975,0.210314 -0.363636,0.363636 -0.131546,0.263092 -0.11916,0.581413 -0.242425,0.848485 0.06509,0.562352 -0.519395,0.623235 -0.727272,0.969697 -0.06574,0.109561 -0.05034,0.257326 -0.121212,0.363636 -0.09509,0.14263 -0.256552,0.22978 -0.363637,0.363637 -0.05644,0.07055 -0.0711,0.167252 -0.121212,0.242424 -0.03425,0.05138 -0.313485,0.338561 -0.363636,0.363636 -0.03614,0.01807 -0.08507,-0.01807 -0.121212,0 -0.05111,0.02555 -0.121212,0.06407 -0.121212,0.121213 0,0.0404 0.161616,0 0.121212,0 -0.08081,0 -0.185285,-0.05714 -0.242425,0 -0.0404,0.0404 0.161617,0.08081 0.121213,0.121212 -0.05714,0.05714 -0.185285,-0.05714 -0.242425,0 -0.0404,0.0404 0.146766,0.0701 0.121212,0.121212 -0.0404,0.08081 -0.178539,0.05733 -0.242424,0.121212 -0.02857,0.02857 0.01807,0.08507 0,0.121212 -0.02555,0.05111 -0.103143,0.067 -0.121212,0.121212 -0.07666,0.108772 0.03833,0.248645 0,0.363637 -0.01575,0.04726 -0.242424,0.468001 -0.242424,0.484848 0,0.05714 0.121212,0.06407 0.121212,0.121212 0,0.09035 -0.0993,0.154776 -0.121212,0.242424 -0.0196,0.0784 0.0196,0.164029 0,0.242425 -0.02191,0.08765 -0.121212,0.152078 -0.121212,0.242424 0,0.05714 0.103143,0.067 0.121212,0.121212 0.172744,0.518232 -0.120857,-0.0011 -0.242424,0.363636 -0.02857,0.08571 0.09264,0.156715 0.121212,0.242425 0.01278,0.03833 0.02857,0.09264 0,0.121212 -0.02857,0.02857 -0.149782,-0.02857 -0.121212,0 0.06388,0.06388 0.164953,0.07473 0.242424,0.121212 0.124918,0.07495 0.233337,0.177275 0.363636,0.242424 C 39.600153,20.103107 39.473802,19.934228 40,20 c 1.440069,0.180009 -0.729546,0.121212 1.212121,0.121212 0.121212,0 0.246044,0.0294 0.363637,0 0.654618,-0.163654 0.624117,-0.260481 1.090909,-0.727272 0.161616,-0.161617 0.333001,-0.314021 0.484848,-0.484849 0.171879,-0.193364 0.301912,-0.423123 0.484849,-0.60606 0.223138,-0.223139 0.53014,-0.359646 0.727272,-0.606061 0.135923,-0.169903 0.130479,-0.419485 0.242425,-0.606061 0.58901,-0.981684 0.437407,-0.20287 0.848484,-1.333333 0.07041,-0.193617 0.067,-0.407299 0.121213,-0.606061 0.134472,-0.493066 0.350375,-0.961478 0.484848,-1.454545 0.08166,-0.299412 0.192026,-1.056143 0.242424,-1.333333 0.08081,-0.444445 0.161616,-0.888889 0.242425,-1.333334 0.03685,-0.202698 0.09208,-0.40211 0.121212,-0.60606 0.01143,-0.08 -0.03001,-0.167396 0,-0.242425 0.0541,-0.135259 0.185038,-0.2297362 0.242424,-0.3636362 0.06562,-0.15312 0.07545,-0.324668 0.121212,-0.484848 0.0351,-0.122853 0.09615,-0.238349 0.121212,-0.363637 0.01585,-0.07924 -0.0196,-0.164029 0,-0.2424241 C 47.171175,8.6486497 47.463655,8.0772449 47.515152,8 c 0.03169,-0.047543 0.09566,-0.070105 0.121212,-0.1212121 0.05714,-0.1142799 0.04455,-0.2614213 0.121212,-0.3636364 0.108415,-0.1445539 0.357079,-0.1146554 0.484848,-0.2424242 0.06388,-0.063884 0.05733,-0.1785399 0.121212,-0.2424243 0.459781,-0.459781 0.234349,-0.067882 0.727273,-0.3636363 0.09799,-0.058796 0.161616,-0.1616162 0.242424,-0.2424243 0.0404,-0.040404 0.06816,-0.099991 0.121212,-0.1212121 0.154676,-0.06187 0.330174,-0.059342 0.484849,-0.1212121 0.05305,-0.021221 0.06816,-0.099991 0.121212,-0.1212121 0.154675,-0.06187 0.330173,-0.059342 0.484849,-0.1212121 0.05305,-0.021221 0.067,-0.1031429 0.121212,-0.1212122 0.07666,-0.025554 0.161616,0 0.242424,0 0.08081,0 0.161616,0 0.242424,0 0.07832,0 0.455959,-0.02889 0.484849,0 0.09035,0.090346 0.05548,0.2540756 0.121212,0.3636364 0.0588,0.097994 0.183627,0.14443 0.242424,0.2424242 0.06574,0.1095609 0.06407,0.2493565 0.121212,0.3636364 0.06515,0.1302991 0.185039,0.2297364 0.242424,0.3636364 0.06562,0.1531205 0.06272,0.3288653 0.121212,0.4848484 0.06345,0.1691876 0.178979,0.315661 0.242425,0.4848485 0.05849,0.1559832 0.05355,0.3326165 0.121212,0.4848485 0.09568,0.2152882 0.298914,0.3795312 0.363636,0.6060602 0.02482,0.08687 -0.143124,0.154776 -0.121212,0.242425 0.02772,0.110867 0.199982,0.136318 0.242424,0.242424 0.04502,0.112543 0,0.242424 0,0.3636362 0,0.121212 0,0.242425 0,0.363637 0,0.363636 0,0.727272 0,1.090909 0,0.08081 0.01585,0.163185 0,0.242424 -0.08413,0.420674 -0.204185,0.474267 -0.484848,0.848485 -0.371346,0.495127 -0.415556,0.519428 -0.727273,1.090909 -0.648971,1.18978 -0.121444,0.51548 -1.212121,2.060606 -0.181981,0.257807 -0.420454,0.472063 -0.606061,0.727273 -0.138569,0.190533 -0.216462,0.422092 -0.363636,0.60606 -0.178475,0.223094 -0.42316,0.38658 -0.606061,0.606061 -0.0011,0.0014 -1.208717,1.692432 -1.212121,1.69697 -0.155227,0.206969 -0.321022,0.405828 -0.484848,0.60606 -0.199828,0.244235 -0.436642,0.461042 -0.606061,0.727273 -0.116815,0.183566 -0.117649,0.42781 -0.242424,0.606061 -0.163838,0.234054 -0.416252,0.392526 -0.606061,0.60606 -0.26631,0.299599 -0.644063,0.920091 -0.848485,1.212121 -0.115851,0.165502 -0.256566,0.313536 -0.363636,0.484849 -0.09577,0.153227 -0.142194,0.334503 -0.242424,0.484848 -0.143508,0.215262 -0.341341,0.390799 -0.484849,0.606061 -0.10023,0.150345 -0.154672,0.326895 -0.242424,0.484848 -0.114415,0.205947 -0.246749,0.401508 -0.363636,0.606061 -0.04483,0.07844 -0.07639,0.163982 -0.121212,0.242424 -0.124277,0.217485 -0.513158,0.812199 -0.606061,1.090909 -0.05111,0.153323 0.07228,0.340295 0,0.484849 -0.05111,0.102215 -0.183628,0.14443 -0.242424,0.242424 -0.0024,0.004 -0.236141,0.711564 -0.242425,0.727273 -0.03355,0.08388 -0.121212,0.152078 -0.121212,0.242424 0,0.0404 0.108436,-0.03833 0.121212,0 0,0.121212 0,0.242424 0,0.363636 -0.0404,0 -0.108435,-0.03833 -0.121212,0 -0.03833,0.114992 0.0333,0.247088 0,0.363637 -0.04964,0.17374 -0.185284,0.313428 -0.242424,0.484848 -0.02555,0.07666 0.03001,0.167396 0,0.242425 -0.134215,0.335537 -0.370569,0.626857 -0.484848,0.969696 -0.1303,0.390898 -0.129228,0.815933 -0.242425,1.212122 -0.12992,0.454721 -0.348956,0.880361 -0.484848,1.333333 -0.170537,0.568455 -0.416744,2.046023 -0.484849,2.545455 -0.130978,0.960505 -0.133795,1.689008 -0.242424,2.666666 C 40.094072,39.274568 40,39.511808 40,39.757576 c 0,0.365874 0.121212,0.725035 0.121212,1.090909 0,0.0052 -0.241678,2.411556 -0.242424,2.424242 -0.01661,0.282341 0,0.565657 0,0.848485 0,0.323233 0,0.646465 0,0.969697 0,0.808081 0,1.616162 0,2.424243 0,1.209388 0,2.697417 0,4.242424 0,0.282828 0,0.565657 0,0.848485 0,0.363636 -0.08819,0.73813 0,1.090909 0.07901,0.316022 0.381838,0.539453 0.484848,0.848485 0.19335,0.580048 0.06261,1.233795 0.242425,1.818182 0.07971,0.259053 0.256869,0.478149 0.363636,0.727272 0.01592,0.03714 -0.01278,0.08288 0,0.121212 0.06881,0.206417 0.189653,0.394975 0.242424,0.606061 0.0294,0.117593 -0.05421,0.255221 0,0.363636 0.07666,0.153323 0.275442,0.216645 0.363637,0.363637 0.04158,0.06929 -0.0196,0.164029 0,0.242424 0.204113,0.816453 0.0019,0.0019 0.242424,0.242424 0.02857,0.02857 0,0.08081 0,0.121212 0.0404,0.121212 0.02144,0.28382 0.121212,0.363637 0.130085,0.104068 0.367051,0.0034 0.484848,0.121212 0.117797,0.117797 0.05559,0.331728 0.121213,0.484848 0.05739,0.1339 0.149162,0.251723 0.242424,0.363637 0.10974,0.131688 0.253896,0.231948 0.363636,0.363636 0.09326,0.111914 0.139414,0.260626 0.242424,0.363636 0.14285,0.14285 0.327098,0.237436 0.484849,0.363637 0.04462,0.0357 0.09566,0.0701 0.121212,0.121212 0.05714,0.11428 0.03087,0.27329 0.121212,0.363636 0.09035,0.09035 0.254076,0.05548 0.363636,0.121212 0.867562,0.05948 0.03087,0.273291 0.121213,0.363637 0.09035,0.09035 0.249356,0.06407 0.363636,0.121212 0.03614,0.01807 -0.09264,-0.02857 -0.121212,0 -0.02857,0.02857 -0.0404,0.121212 0,0.121212 0.09035,0 0.152078,-0.121212 0.242424,-0.121212 0.05714,0 -0.09566,0.0701 -0.121212,0.121212 -0.01807,0.03614 0,0.08081 0,0.121212"
         style="fill:none;fill-rule:evenodd;stroke:#000000;stroke-width:1px;stroke-linecap:butt;stroke-linejoin:miter;stroke-opacity:1" />
      <path
         inkscape:connector-curvature="0"
         id="path4710"
         d="M 28.149702,63.375965 C 28.02917,63.255433 26.905775,63.19467 23.868259,63.144389 l -3.180225,-0.05264 0.331741,-0.328219 c 0.182457,-0.180522 0.440831,-0.545332 0.574164,-0.810691 0.133334,-0.265359 0.310606,-0.55538 0.39394,-0.644492 0.08333,-0.08911 0.152309,-0.308126 0.153279,-0.486698 9.69e-4,-0.178571 0.08244,-0.556267 0.181048,-0.839324 0.09861,-0.283057 0.205878,-0.801239 0.238379,-1.151515 0.09484,-1.022145 0.381896,-2.39753 0.531631,-2.547264 0.07595,-0.07595 0.138087,-0.243892 0.138087,-0.37321 0,-0.129316 0.07672,-0.29568 0.170491,-0.369697 0.09377,-0.07402 0.331914,-0.442189 0.529208,-0.818162 0.197295,-0.375974 0.447846,-0.810838 0.556782,-0.966365 0.108936,-0.155526 0.198064,-0.380815 0.198064,-0.500639 0,-0.119824 0.126288,-0.421324 0.280638,-0.669999 0.15435,-0.248675 0.404599,-0.779409 0.556108,-1.179409 0.151508,-0.4 0.333337,-0.863637 0.404062,-1.030303 0.07073,-0.166667 0.175023,-0.534849 0.231772,-0.818182 0.05675,-0.283334 0.164585,-0.774243 0.239637,-1.090909 0.199622,-0.842251 0.255128,-7.930181 0.103702,-13.242425 -0.07126,-2.5 -0.158671,-6.286044 -0.194243,-8.413432 -0.05359,-3.204898 -0.09943,-3.961147 -0.267419,-4.411466 -0.111507,-0.298917 -0.28456,-0.582396 -0.38456,-0.629952 -0.68835,-0.327358 -1.099289,-0.581527 -1.575757,-0.974617 -0.3,-0.247503 -1.145455,-0.897885 -1.878788,-1.445291 -0.733333,-0.547408 -1.629767,-1.276798 -1.992074,-1.620869 -0.362308,-0.344072 -0.805456,-0.707403 -0.984774,-0.807403 -0.179319,-0.1 -0.668272,-0.495454 -1.086565,-0.878788 -0.418292,-0.383333 -0.80649,-0.696969 -0.862662,-0.696969 -0.05617,0 -0.352235,-0.19091 -0.657918,-0.424243 -0.305683,-0.233333 -0.628658,-0.424242 -0.717722,-0.424242 -0.08906,0 -0.480341,-0.264618 -0.869504,-0.588039 -0.389163,-0.323422 -0.932397,-0.728784 -1.207187,-0.900806 -0.873816,-0.547019 -1.536224,-1.319492 -2.079788,-2.425363 -0.285339,-0.580519 -0.564141,-1.0554893 -0.619558,-1.0554893 -0.05542,0 -0.271957,-0.4078463 -0.4812,-0.9063251 -0.318502,-0.7587649 -0.379743,-1.0597196 -0.376147,-1.8484848 0.0024,-0.523477 0.07222,-1.0644869 0.157142,-1.2174318 l 0.152847,-0.2752721 0.297403,0.3964843 c 0.163572,0.2180663 0.351949,0.4879351 0.418616,0.5997084 0.610717,1.0239289 0.778917,1.3595854 0.853199,1.7026301 0.14978,0.6916961 0.560951,1.4317047 0.890062,1.6018948 0.174855,0.090421 0.413271,0.2697656 0.529814,0.3985441 0.116543,0.1287784 0.498232,0.3656084 0.848199,0.5262884 0.349966,0.16068 0.67057,0.339736 0.712453,0.397904 0.131385,0.18247 1.091425,0.352444 2.292214,0.405833 1.006102,0.04473 1.180378,0.02289 1.342099,-0.168212 0.395264,-0.467078 0.53196,-1.2710542 0.53196,-3.1287128 0,-1.7783617 -0.0073,-1.8294114 -0.333333,-2.3309246 -0.183334,-0.2820086 -0.333334,-0.5562499 -0.333334,-0.6094253 0,-0.053175 -0.122727,-0.204186 -0.272727,-0.3355789 l -0.272727,-0.2388963 0.282723,-0.040207 c 0.155498,-0.022114 0.377974,0.045995 0.494393,0.1513519 C 18.972322,4.7137987 19.207443,4.8 19.378394,4.8 c 0.378888,0 0.470062,0.1862371 0.593406,1.2121212 0.08536,0.7099561 0.33301,2.1940405 0.541356,3.2441466 0.04738,0.2388177 0.217096,0.4943501 0.428127,0.6446175 0.192294,0.1369257 0.349626,0.3515217 0.349626,0.4768807 0,0.125359 0.122727,0.367643 0.272727,0.538409 0.15,0.170765 0.381819,0.454477 0.515152,0.630469 1.03963,1.372252 1.676714,1.71409 3.397229,1.822841 0.78108,0.04937 0.879167,0.02845 1.181818,-0.252035 0.181524,-0.168231 0.330044,-0.421156 0.330044,-0.562055 0,-0.140899 0.0556,-0.360076 0.123562,-0.487059 0.06796,-0.126983 0.143438,-0.554711 0.167729,-0.950507 0.02429,-0.395796 0.07327,-0.766719 0.108842,-0.824273 0.122666,-0.198479 -0.154534,-2.8270675 -0.346,-3.2809861 C 26.936457,6.7623232 26.821147,6.0939394 26.785766,5.5272727 l -0.06433,-1.030303 0.466553,-0.2109186 c 0.579029,-0.2617664 1.801772,-0.5769602 2.238221,-0.5769602 0.300489,0 0.333546,0.049076 0.410644,0.6096447 0.05612,0.4080266 0.03601,0.6672834 -0.0608,0.7839303 -0.07955,0.095857 -0.273304,0.6681375 -0.430556,1.2717343 -0.157253,0.6035968 -0.326099,1.16247 -0.375215,1.2419405 -0.04912,0.07947 -0.129318,0.3646681 -0.178229,0.6337725 -0.04891,0.2691044 -0.146284,0.7074626 -0.216389,0.9741292 -0.308209,1.1723846 0.05416,4.3457816 0.567322,4.9682716 0.678741,0.823345 0.930357,1.019591 1.406426,1.09694 0.274487,0.0446 0.662703,0.152422 0.862703,0.239612 0.822931,0.358756 3.541797,0.453318 4.032035,0.140234 0.314174,-0.200643 0.631869,-1.062485 0.950964,-2.579765 0.293225,-1.394276 0.332692,-1.868552 0.367044,-4.4107471 l 0.03849,-2.8484849 2.361877,-0.03285 c 2.726237,-0.037918 2.585418,-0.09918 2.861756,1.2449717 0.364541,1.7731781 0.0303,4.5789973 -0.671435,5.6363633 -0.154855,0.233333 -0.3196,0.615151 -0.366101,0.848485 -0.0465,0.233333 -0.232142,0.587879 -0.412535,0.787879 -0.180393,0.2 -0.461117,0.569576 -0.62383,0.82128 -0.162711,0.251704 -0.47312,0.563505 -0.689795,0.692892 -0.519745,0.310361 -0.748068,0.854012 -1.111511,2.64659 -0.229794,1.133388 -0.190285,1.313858 0.364269,1.663933 0.76347,0.481957 2.775064,0.713361 3.587852,0.41273 0.40689,-0.150499 2.627229,-2.400945 2.906658,-2.946073 0.107771,-0.210242 0.324166,-0.535889 0.48088,-0.723655 0.156714,-0.187768 0.37048,-0.651403 0.475037,-1.030303 0.104556,-0.3789 0.294084,-0.988909 0.421173,-1.355575 0.12709,-0.366667 0.343616,-1.321212 0.481171,-2.121212 0.352046,-2.047447 1.156419,-4.5454555 1.463664,-4.5454555 0.04083,0 0.205607,-0.1116714 0.366167,-0.2481586 0.518308,-0.4405964 1.178538,-0.8247966 1.791479,-1.0424939 0.85432,-0.3034272 0.920953,-0.2318955 1.707807,1.8333422 0.20262,0.5318126 0.3684,1.0604118 0.3684,1.1746646 0,0.1142529 0.05455,0.2414434 0.121212,0.2826457 0.06667,0.041202 0.121213,0.4893835 0.121213,0.9959575 0,0.883612 -0.01916,0.946129 -0.471507,1.538301 -0.259329,0.339491 -0.645364,0.964964 -0.857855,1.389939 -0.402738,0.805458 -1.56976,2.487207 -2.316813,3.338665 -0.238728,0.272092 -0.751678,0.931076 -1.139887,1.46441 -0.388209,0.533333 -0.882751,1.168212 -1.098981,1.410843 -0.21623,0.242631 -0.431864,0.569903 -0.479186,0.727273 -0.04732,0.157369 -0.290078,0.504309 -0.539456,0.770975 -0.249377,0.266666 -0.68869,0.839394 -0.976249,1.272727 -0.287559,0.433333 -0.634642,0.951252 -0.771294,1.150932 -0.528599,0.772395 -1.773015,3.028218 -1.773015,3.214042 0,0.107554 -0.115786,0.435203 -0.257304,0.72811 -0.141516,0.292906 -0.283769,0.753151 -0.316114,1.022768 -0.06744,0.562128 -0.358364,1.510594 -0.524895,1.711251 -0.06211,0.07484 -0.220861,0.567088 -0.352775,1.093881 -0.131913,0.526792 -0.351225,1.27273 -0.487357,1.657639 -0.443362,1.25358 -1.114366,6.408009 -0.929882,7.143049 0.04102,0.163461 0.02315,0.748196 -0.03971,1.299415 -0.06287,0.551217 -0.120073,3.501087 -0.127123,6.555268 l -0.01282,5.553054 0.31187,0.585846 c 0.210667,0.395737 0.311871,0.775152 0.311871,1.169214 0,0.377479 0.128337,0.884954 0.363636,1.437897 0.2,0.469994 0.363636,0.978507 0.363636,1.130029 0,0.151524 0.08182,0.343401 0.181819,0.426393 0.1,0.08299 0.181818,0.233233 0.181818,0.333868 0,0.285951 0.472532,0.97922 0.721241,1.058157 0.123395,0.03916 0.255994,0.19198 0.294663,0.339591 0.0714,0.272539 0.999204,1.36222 2.044702,2.40144 0.316667,0.314764 0.575757,0.594501 0.575757,0.621638 0,0.06818 -16.466984,0.07125 -16.535146,0.0031 l 0,-2e-6 z"
         style="fill:#786721;fill-opacity:1;stroke:none;stroke-opacity:1" />
    </g>
    <g
       id="g4724"
       transform="translate(0.12121212,5.2121212)">
      <ellipse
         ry="3.3333333"
         rx="3.5757575"
         cy="8.545455"
         cx="9.878788"
         id="path4714"
         style="fill:#31c932;fill-opacity:1;stroke:none;stroke-opacity:1" />
      <ellipse
         ry="2.3030303"
         rx="3.2121212"
         cy="4.969697"
         cx="10.363636"
         id="path4718"
         style="fill:#2cce2d;fill-opacity:1;stroke:none;stroke-opacity:1" />
      <ellipse
         ry="2.2424242"
         rx="3.6363637"
         cy="5.5151515"
         cx="12.484848"
         id="path4720"
         style="fill:#27d328;fill-opacity:1;stroke:none;stroke-opacity:1" />
      <ellipse
         ry="2.8484848"
         rx="3.878788"
         cy="8.424242"
         cx="12.484848"
         id="path4722"
         style="fill:#27d344;fill-opacity:1;stroke:none;stroke-opacity:1" />
    </g>
    <use
       id="use4732"
       xlink:href="#g4724"
       x="0"
       y="0"
       width="100%"
       height="100%"
       transform="translate(-0.00473576,1.051258)" />
    <use
       id="use4734"
       xlink:href="#g4724"
       x="0"
       y="0"
       width="100%"
       height="100%"
       transform="translate(25.65029,3.2601499)" />
    <use
       id="use4736"
       xlink:href="#g4724"
       x="0"
       y="0"
       width="100%"
       height="100%"
       transform="translate(18.609257,1.8992051)" />
    <use
       id="use4738"
       xlink:href="#g4724"
       x="0"
       y="0"
       width="100%"
       height="100%"
       transform="translate(4.7199402,-1.8892658)" />
    <use
       id="use4740"
       xlink:href="#g4724"
       x="0"
       y="0"
       width="100%"
       height="100%"
       transform="translate(11.636204,4.9682128)" />
    <use
       id="use4742"
       xlink:href="#g4724"
       x="0"
       y="0"
       width="100%"
       height="100%"
       transform="translate(14.072298,-0.83507611)" />
    <use
       id="use4744"
       xlink:href="#g4724"
       x="0"
       y="0"
       width="100%"
       height="100%"
       transform="translate(31.789353,2.9118423)" />
    <use
       id="use4746"
       xlink:href="#g4724"
       x="0"
       y="0"
       width="100%"
       height="100%"
       transform="translate(19.338493,-2.4460019)" />
    <use
       id="use4748"
       xlink:href="#g4724"
       x="0"
       y="0"
       width="100%"
       height="100%"
       transform="translate(19.202373,11.1092)" />
    <use
       id="use4750"
       xlink:href="#g4724"
       x="0"
       y="0"
       width="100%"
       height="100%"
       transform="translate(24.461066,10.376668)" />
    <use
       id="use4752"
       xlink:href="#g4724"
       x="0"
       y="0"
       width="100%"
       height="100%"
       transform="translate(35.554379,9.7640648)" />
    <use
       id="use4754"
       xlink:href="#g4724"
       x="0"
       y="0"
       width="100%"
       height="100%"
       transform="translate(34.22675,11.646805)" />
    <use
       id="use4756"
       xlink:href="#g4724"
       x="0"
       y="0"
       width="100%"
       height="100%"
       transform="translate(30.056188,12.226992)" />
    <use
       id="use4758"
       xlink:href="#g4724"
       x="0"
       y="0"
       width="100%"
       height="100%"
       transform="translate(33.428713,7.4333568)" />
    <use
       id="use4760"
       xlink:href="#g4724"
       x="0"
       y="0"
       width="100%"
       height="100%"
       transform="translate(28.639983,7.7498318)" />
    <use
       id="use4762"
       xlink:href="#g4724"
       x="0"
       y="0"
       width="100%"
       height="100%"
       transform="translate(31.464397,6.0264858)" />
    <use
       id="use4764"
       xlink:href="#g4724"
       x="0"
       y="0"
       width="100%"
       height="100%"
       transform="translate(23.457261,3.6813871)" />
    <use
       id="use4766"
       xlink:href="#g4724"
       x="0"
       y="0"
       width="100%"
       height="100%"
       transform="translate(25.185978,2.1604482)" />
    <use
       id="use4768"
       xlink:href="#g4724"
       x="0"
       y="0"
       width="100%"
       height="100%"
       transform="translate(26.810013,-1.750347)" />
    <use
       id="use4770"
       xlink:href="#g4724"
       x="0"
       y="0"
       width="100%"
       height="100%"
       transform="translate(30.848108,-0.70129621)" />
    <use
       id="use4772"
       xlink:href="#g4724"
       x="0"
       y="0"
       width="100%"
       height="100%"
       transform="translate(28.9302,-0.70745541)" />
    <use
       id="use4774"
       xlink:href="#g4724"
       x="0"
       y="0"
       width="100%"
       height="100%"
       transform="translate(27.946067,3.4681617)" />
    <use
       id="use4776"
       xlink:href="#g4724"
       x="0"
       y="0"
       width="100%"
       height="100%"
       transform="translate(30.87422,0.81132169)" />
    <use
       id="use4778"
       xlink:href="#g4724"
       x="0"
       y="0"
       width="100%"
       height="100%"
       transform="translate(29.146764,-2.6420434)" />
    <use
       id="use4780"
       xlink:href="#g4724"
       x="0"
       y="0"
       width="100%"
       height="100%"
       transform="translate(26.500411,-5.2009447)" />
    <use
       id="use4782"
       xlink:href="#g4724"
       x="0"
       y="0"
       width="100%"
       height="100%"
       transform="translate(32.760469,-0.23178061)" />
    <use
       id="use4784"
       xlink:href="#g4724"
       x="0"
       y="0"
       width="100%"
       height="100%"
       transform="translate(36.94257,-1.1874627)" />
    <use
       id="use4786"
       xlink:href="#g4724"
       x="0"
       y="0"
       width="100%"
       height="100%"
       transform="translate(43.141502,1.0928014)" />
    <use
       id="use4788"
       xlink:href="#g4724"
       x="0"
       y="0"
       width="100%"
       height="100%"
       transform="translate(42.342572,4.3323732)" />
    <use
       id="use4790"
       xlink:href="#g4724"
       x="0"
       y="0"
       width="100%"
       height="100%"
       transform="translate(38.820858,2.3333995)" />
    <use
       id="use4792"
       xlink:href="#g4724"
       x="0"
       y="0"
       width="100%"
       height="100%"
       transform="translate(39.377083,0.84251149)" />
    <use
       id="use4794"
       xlink:href="#g4724"
       x="0"
       y="0"
       width="100%"
       height="100%"
       transform="translate(39.901426,3.8141695)" />
    <use
       id="use4796"
       xlink:href="#g4724"
       x="0"
       y="0"
       width="100%"
       height="100%"
       transform="translate(36.844979,4.6044562)" />
    <use
       id="use4798"
       xlink:href="#g4724"
       x="0"
       y="0"
       width="100%"
       height="100%"
       transform="translate(39.644243,0.44634819)" />
    <use
       id="use4800"
       xlink:href="#g4724"
       x="0"
       y="0"
       width="100%"
       height="100%"
       transform="translate(43.157223,2.5509854)" />
    <use
       id="use4802"
       xlink:href="#g4724"
       x="0"
       y="0"
       width="100%"
       height="100%"
       transform="translate(40.886259,2.0522865)" />
    <use
       id="use4804"
       xlink:href="#g4724"
       x="0"
       y="0"
       width="100%"
       height="100%"
       transform="translate(36.533901,2.2197284)" />
    <use
       id="use4806"
       xlink:href="#g4724"
       x="0"
       y="0"
       width="100%"
       height="100%"
       transform="translate(31.885201,3.242468)" />
    <use
       id="use4808"
       xlink:href="#g4724"
       x="0"
       y="0"
       width="100%"
       height="100%"
       transform="translate(24.866959,0.48627019)" />
    <use
       id="use4810"
       xlink:href="#g4724"
       x="0"
       y="0"
       width="100%"
       height="100%"
       transform="translate(22.745339,-1.2320876)" />
    <use
       id="use4812"
       xlink:href="#g4724"
       x="0"
       y="0"
       width="100%"
       height="100%"
       transform="translate(25.173422,1.0715769)" />
    <use
       id="use4814"
       xlink:href="#g4724"
       x="0"
       y="0"
       width="100%"
       height="100%"
       transform="translate(15.021971,1.9859777)" />
    <use
       id="use4816"
       xlink:href="#g4724"
       x="0"
       y="0"
       width="100%"
       height="100%"
       transform="translate(18.950151,0.82419259)" />
    <use
       id="use4818"
       xlink:href="#g4724"
       x="0"
       y="0"
       width="100%"
       height="100%"
       transform="translate(14.836179,3.6088721)" />
    <use
       id="use4820"
       xlink:href="#g4724"
       x="0"
       y="0"
       width="100%"
       height="100%"
       transform="translate(8.8325437,3.4119476)" />
    <use
       id="use4822"
       xlink:href="#g4724"
       x="0"
       y="0"
       width="100%"
       height="100%"
       transform="translate(5.3273275,1.6376248)" />
    <use
       id="use4824"
       xlink:href="#g4724"
       x="0"
       y="0"
       width="100%"
       height="100%"
       transform="translate(8.2146182,3.0599372)" />
    <use
       id="use4826"
       xlink:href="#g4724"
       x="0"
       y="0"
       width="100%"
       height="100%"
       transform="translate(3.9459421,2.748492)" />
    <use
       id="use4828"
       xlink:href="#g4724"
       x="0"
       y="0"
       width="100%"
       height="100%"
       transform="translate(4.5998505,0.60209969)" />
    <use
       id="use4830"
       xlink:href="#g4724"
       x="0"
       y="0"
       width="100%"
       height="100%"
       transform="translate(3.4919844,4.554288)" />
    <use
       id="use4832"
       xlink:href="#g4724"
       x="0"
       y="0"
       width="100%"
       height="100%"
       transform="translate(5.7614511,2.3584225)" />
    <use
       id="use4834"
       xlink:href="#g4724"
       x="0"
       y="0"
       width="100%"
       height="100%"
       transform="translate(2.6919376,0.63134139)" />
    <use
       id="use4836"
       xlink:href="#g4724"
       x="0"
       y="0"
       width="100%"
       height="100%"
       transform="translate(7.6288706,1.8064098)" />
    <use
       id="use4838"
       xlink:href="#g4724"
       x="0"
       y="0"
       width="100%"
       height="100%"
       transform="translate(1.5597555,0.98730809)" />
    <use
       id="use4840"
       xlink:href="#g4724"
       x="0"
       y="0"
       width="100%"
       height="100%"
       transform="translate(4.4835085,2.1406693)" />
    <use
       id="use4842"
       xlink:href="#g4724"
       x="0"
       y="0"
       width="100%"
       height="100%"
       transform="translate(1.7149575,6.1495988)" />
    <use
       id="use4844"
       xlink:href="#g4724"
       x="0"
       y="0"
       width="100%"
       height="100%"
       transform="translate(8.2961145,9.3328608)" />
    <use
       id="use4846"
       xlink:href="#g4724"
       x="0"
       y="0"
       width="100%"
       height="100%"
       transform="translate(4.0345486,4.1087984)" />
    <use
       id="use4848"
       xlink:href="#g4724"
       x="0"
       y="0"
       width="100%"
       height="100%"
       transform="translate(16.202479,5.0688708)" />
    <use
       id="use4850"
       xlink:href="#g4724"
       x="0"
       y="0"
       width="100%"
       height="100%"
       transform="translate(13.071736,2.8835357)" />
    <use
       id="use4852"
       xlink:href="#g4724"
       x="0"
       y="0"
       width="100%"
       height="100%"
       transform="translate(12.004444,-7.4141873)" />
    <use
       id="use4854"
       xlink:href="#g4724"
       x="0"
       y="0"
       width="100%"
       height="100%"
       transform="translate(7.7694455,-2.1645465)" />
  </g>
</svg>
